<svg width="32" height="32" viewBox="0 0 32 32" fill="none" xmlns="http://www.w3.org/2000/svg">
<path d="M0 0.00886822V9.09298C0 9.67905 0.305577 11.7303 2.13904 13.4885C3.9725 15.2467 5.34759 15.6863 7.48663 15.6863H23.5294C23.5294 15.6863 20.3209 15.3932 18.6402 13.342C16.9595 11.2907 16.9595 10.5582 16.8067 9.09298C16.6539 7.6278 17.4179 5.28351 14.6677 2.49967C11.9175 -0.284167 7.48663 0.00886822 7.48663 0.00886822H0Z" fill="url(#paint0_linear_498_405)"/>
<path d="M29.8085 13.1866C32.5519 10.5582 31.9423 7.17938 31.9423 6.5933C31.9423 6.00723 31.6375 3.95598 29.8085 2.19777C27.9795 0.439554 26.6078 0 24.474 0L8.47059 0C8.47059 0 11.6713 0.293036 13.3478 2.34429C15.0244 4.39554 15.0244 5.12813 15.1768 6.5933C15.3292 8.05848 14.5671 10.4028 17.3106 13.1866C20.054 15.9704 24.474 15.6774 24.474 15.6774C24.474 15.6774 27.065 15.8151 29.8085 13.1866Z" fill="url(#paint1_linear_498_405)"/>
<path d="M0 31.3637V22.2796C0 21.6935 0.305577 19.6423 2.13904 17.884C3.9725 16.1258 5.34759 15.6863 7.48663 15.6863H23.5294C23.5294 15.6863 20.3209 15.9793 18.6402 18.0306C16.9595 20.0818 16.9595 20.8144 16.8067 22.2796C16.6539 23.7448 17.4179 26.089 14.6677 28.8729C11.9175 31.6567 7.48663 31.3637 7.48663 31.3637H0Z" fill="url(#paint2_linear_498_405)"/>
<path d="M29.8085 18.186C32.5519 20.8144 31.9423 24.1932 31.9423 24.7793C31.9423 25.3653 31.6375 27.4166 29.8085 29.1748C27.9795 30.933 26.6078 31.3726 24.474 31.3726L8.47059 31.3726C8.47059 31.3726 11.6713 31.0795 13.3478 29.0283C15.0244 26.977 15.0244 26.2444 15.1768 24.7793C15.3292 23.3141 14.5671 20.9698 17.3106 18.186C20.054 15.4021 24.474 15.6951 24.474 15.6951C24.474 15.6951 27.065 15.5575 29.8085 18.186Z" fill="url(#paint3_linear_498_405)"/>
<defs>
<linearGradient id="paint0_linear_498_405" x1="11.7647" y1="15.6863" x2="11.7647" y2="4.78707e-06" gradientUnits="userSpaceOnUse">
<stop stop-color="#FFE664"/>
<stop offset="1" stop-color="#FFB200"/>
</linearGradient>
<linearGradient id="paint1_linear_498_405" x1="20.2353" y1="0" x2="20.2353" y2="15.6863" gradientUnits="userSpaceOnUse">
<stop stop-color="#FFE664"/>
<stop offset="1" stop-color="#FFB200"/>
</linearGradient>
<linearGradient id="paint2_linear_498_405" x1="11.7647" y1="15.6863" x2="11.7647" y2="31.3726" gradientUnits="userSpaceOnUse">
<stop stop-color="#FFE664"/>
<stop offset="1" stop-color="#FFB200"/>
</linearGradient>
<linearGradient id="paint3_linear_498_405" x1="20.2353" y1="31.3726" x2="20.2353" y2="15.6863" gradientUnits="userSpaceOnUse">
<stop stop-color="#FFE664"/>
<stop offset="1" stop-color="#FFB200"/>
</linearGradient>
</defs>
</svg>
